<?xml version="1.0" standalone="no"?>
<!DOCTYPE svg PUBLIC "-//W3C//DTD SVG 20010904//EN"
 "http://www.w3.org/TR/2001/REC-SVG-20010904/DTD/svg10.dtd">
<svg version="1.0" xmlns="http://www.w3.org/2000/svg"
 width="355.000000pt" height="355.000000pt" viewBox="0 0 355.000000 355.000000"
 preserveAspectRatio="xMidYMid meet">
<metadata>
Created by potrace 1.14, written by Peter Selinger 2001-2017
</metadata>
<g transform="translate(0.000000,355.000000) scale(0.100000,-0.100000)"
fill="#000000" stroke="none">
<path d="M1430 2779 c-36 -4 -117 -26 -180 -49 -188 -68 -391 -140 -454 -161
l-59 -19 -24 24 c-30 30 -63 36 -103 20 -18 -8 -48 -11 -73 -8 -34 5 -46 2
-64 -16 -13 -11 -24 -28 -24 -38 -1 -9 -3 -27 -4 -40 -1 -12 -24 -44 -51 -70
-83 -79 -118 -138 -138 -232 -6 -29 -126 -177 -163 -201 -37 -25 -56 -57 -49
-85 4 -13 12 -24 20 -24 18 0 37 -24 39 -49 1 -12 7 -21 14 -21 7 0 13 -5 13
-11 0 -5 4 -8 9 -5 5 3 15 -2 22 -11 12 -15 12 -16 -3 -10 -10 3 -20 2 -22 -2
-3 -5 12 -7 34 -6 22 1 43 -1 46 -6 3 -5 11 -9 17 -9 8 0 7 3 -2 9 -9 6 3 10
38 12 30 3 51 0 51 -6 0 -5 5 -3 11 5 8 11 12 12 16 2 2 -6 8 -10 11 -8 4 2
26 1 49 -3 26 -5 46 -4 52 2 8 8 11 7 12 -1 3 -26 4 -31 10 -37 4 -3 6 2 5 12
-1 18 4 23 25 23 5 0 7 -6 4 -12 -4 -7 -1 -6 7 3 7 9 27 16 46 15 17 -1 32 1
32 4 0 13 62 1 82 -16 18 -15 20 -16 9 -1 -12 15 -11 17 3 17 9 0 16 -5 16
-11 0 -5 5 -7 11 -4 14 9 61 -3 54 -15 -3 -5 0 -12 6 -16 8 -4 9 -3 5 4 -4 7
-1 12 8 12 9 0 16 -5 16 -11 0 -5 4 -8 9 -4 5 3 15 -1 23 -8 7 -7 20 -13 28
-13 25 0 92 -33 107 -52 8 -9 11 -11 7 -3 -4 8 -3 12 2 9 5 -3 26 -13 46 -23
21 -9 35 -21 32 -26 -3 -5 1 -7 8 -4 16 6 38 -38 38 -74 0 -15 -5 -43 -11 -65
-6 -21 -12 -46 -14 -55 -2 -9 -10 -41 -19 -71 -12 -48 -23 -98 -30 -150 -11
-73 -31 -134 -49 -150 -18 -18 -115 -60 -136 -60 -4 0 -20 -11 -35 -25 -33
-30 -37 -84 -6 -92 11 -3 20 -10 20 -15 0 -6 7 -5 15 2 11 10 18 10 29 1 11
-9 15 -9 19 1 4 9 8 10 14 2 10 -13 43 -15 43 -2 0 5 8 5 18 1 19 -9 162 -10
177 -1 6 3 24 5 42 4 17 0 29 2 26 7 -4 6 11 11 29 8 4 0 5 5 2 12 -8 22 58
128 76 122 11 -5 12 -3 3 6 -9 9 -7 20 9 48 11 20 25 42 30 49 6 6 7 12 2 12
-5 0 -4 4 1 8 6 4 23 32 39 62 16 30 36 63 45 74 9 10 15 19 13 20 -2 0 0 9 3
18 4 10 12 15 18 11 6 -3 7 -1 3 5 -4 7 -3 19 2 29 8 14 18 1 51 -66 23 -45
39 -87 35 -94 -4 -7 -4 -9 1 -5 12 11 56 -82 58 -124 l2 -37 -76 -21 c-43 -13
-88 -33 -103 -46 -31 -30 -34 -73 -6 -97 11 -9 20 -12 20 -7 0 6 77 10 206 10
152 0 203 -3 198 -12 -5 -7 -3 -8 5 -4 7 5 10 10 8 12 -3 3 8 18 24 34 l29 28
1 254 c1 139 1 270 1 291 -1 35 10 48 23 27 3 -5 15 -10 26 -10 10 0 19 -4 19
-10 0 -5 3 -9 8 -9 19 3 43 -2 39 -8 -3 -5 10 -8 29 -9 21 0 40 -8 49 -20 13
-16 14 -16 9 -1 -8 22 22 13 30 -10 5 -12 9 -13 21 -3 9 7 23 9 37 4 13 -4 31
-7 41 -5 10 1 17 -4 18 -16 0 -14 2 -15 7 -3 5 10 22 15 53 15 41 0 45 -2 47
-25 5 -104 31 -222 56 -255 24 -32 20 -64 -10 -75 -14 -6 -34 -10 -45 -10 -29
0 -100 -34 -133 -65 -21 -19 -26 -31 -21 -48 3 -12 7 -27 7 -33 1 -6 9 -9 18
-7 9 3 24 -3 34 -12 11 -11 16 -12 16 -4 0 7 7 4 15 -7 15 -19 15 -19 8 1 -5
16 -4 18 8 10 8 -6 28 -10 44 -10 17 0 36 -7 43 -15 7 -8 11 -10 10 -5 -4 12
4 15 38 15 17 0 23 -4 18 -12 -6 -10 -4 -10 7 0 17 16 42 16 33 0 -6 -10 -4
-10 7 0 17 16 106 16 112 0 3 -8 6 -6 6 5 1 9 8 17 17 17 8 0 13 -4 9 -9 -3
-5 0 -13 6 -17 7 -4 9 -3 6 3 -4 5 5 20 18 31 14 12 25 19 25 14 0 -4 10 8 21
26 12 17 25 32 30 32 4 0 6 6 3 14 -3 8 -1 17 5 21 6 3 11 12 11 20 0 8 5 26
12 42 6 15 12 30 13 33 1 5 18 91 20 100 0 3 4 11 8 18 5 6 5 12 0 12 -4 0 -3
4 3 8 6 4 27 29 47 55 l37 48 10 -26 c6 -15 7 -31 4 -37 -4 -6 -2 -8 4 -4 6 4
16 -8 23 -28 7 -19 16 -33 21 -30 7 5 12 -10 9 -29 -1 -5 3 -6 8 -3 12 8 34
-20 26 -33 -3 -6 0 -8 8 -5 20 7 60 -28 52 -47 -3 -9 -31 -24 -62 -33 -61 -20
-113 -63 -113 -94 0 -23 43 -72 65 -72 8 0 15 -4 15 -8 0 -5 10 -8 23 -8 13 1
21 -4 19 -12 -1 -8 2 -11 8 -7 6 3 8 11 5 16 -4 5 1 9 9 9 10 0 13 -6 10 -17
-5 -15 -4 -15 4 -4 12 17 42 24 42 10 0 -5 5 -9 11 -9 5 0 8 4 4 9 -3 6 11 9
35 8 22 -2 40 1 40 6 0 5 9 7 20 4 11 -3 20 -1 20 4 0 5 3 8 8 7 6 -1 32 8 82
29 8 3 20 5 27 4 6 -1 15 4 19 10 5 8 3 9 -7 4 -8 -5 2 7 21 26 19 19 38 33
41 32 3 -1 6 3 7 10 0 7 6 32 12 57 7 27 9 67 4 100 -4 30 -8 66 -10 80 -1 14
-10 75 -19 135 -9 61 -18 135 -21 165 -2 30 -6 60 -9 67 -2 7 0 15 5 18 6 4 7
14 2 23 -5 9 -7 26 -6 37 1 11 5 49 8 85 12 139 24 212 35 206 6 -4 9 24 10
122 4 205 -152 433 -378 555 -75 41 -230 95 -293 103 -24 3 -54 8 -68 11 -14
3 -101 7 -195 9 -166 3 -273 -7 -365 -36 -19 -5 -46 -12 -60 -15 -14 -2 -49
-9 -79 -15 -98 -18 -165 -13 -274 24 -130 44 -233 58 -347 45z"/>
<path d="M256 1748 c3 -5 10 -6 15 -3 13 9 11 12 -6 12 -8 0 -12 -4 -9 -9z"/>
</g>
</svg>
